# Blender v2.80 (sub 60) OBJ File: ''
# www.blender.org
o Cube_Cube.001
v -0.000006 -0.000006 100.000000
v -0.000006 100.000000 0.000006
v -0.000006 -0.000006 -100.000000
v -100.000000 -0.000006 0.000006
v 100.000000 -0.000006 0.000006
v -0.000006 -100.000000 0.000006
vt 0.000000 0.000000
vt 0.000000 0.000000
vt 0.000000 0.000000
vt 0.000000 0.000000
vt 0.000000 0.000000
vt 0.000000 0.000000
vn 0.5774 0.5774 -0.5774
vn 0.5774 0.5774 0.5774
vn -0.5774 0.5774 0.5774
vn -0.5774 0.5774 -0.5774
vn -0.5774 -0.5774 -0.5774
vn -0.5774 -0.5774 0.5774
vn 0.5774 -0.5774 0.5774
vn 0.5774 -0.5774 -0.5774
s off
f 3/1/1 2/2/1 5/3/1
f 5/3/2 2/2/2 1/4/2
f 4/5/3 1/4/3 2/2/3
f 3/1/4 4/5/4 2/2/4
f 4/5/5 3/1/5 6/6/5
f 4/5/6 6/6/6 1/4/6
f 5/3/7 1/4/7 6/6/7
f 5/3/8 6/6/8 3/1/8
